<svg width="181" height="97" viewBox="0 0 181 97" fill="none" xmlns="http://www.w3.org/2000/svg">
<path d="M123.211 46.218C122.604 46.1153 122.483 45.9566 122.604 45.3592C122.876 44.1453 123.057 42.9128 123.145 41.6719C123.267 38.4234 121.166 36.7617 117.983 37.4899C114.799 38.218 112.596 40.141 110.589 42.4933C108.655 44.8324 107.059 47.431 105.847 50.2133C105.707 50.512 105.679 51.1468 105.193 50.9508C104.708 50.7547 104.969 50.232 105.035 49.8679C105.203 48.9344 105.417 48.0849 105.623 47.2075C106.211 44.659 106.836 42.12 107.378 39.5622C107.667 38.2367 107.294 37.5739 106.155 37.4245C103.429 37.0605 100.404 37.7046 99.4052 41.2238C98.152 45.5286 97.4032 49.9644 97.174 54.442C97.174 54.9741 97.2674 55.5435 96.8566 55.9916C95.6366 57.5183 94.2174 58.8745 92.637 60.0242C92.3056 60.3117 91.8969 60.4951 91.4619 60.5516C91.0268 60.608 90.5848 60.535 90.1911 60.3416C89.839 60.1083 89.5658 59.7739 89.4075 59.3823C89.2492 58.9907 89.2132 58.5604 89.3042 58.1479C89.4723 56.3743 89.6496 54.5913 89.9204 52.8271C90.4338 49.3825 91.302 45.9939 91.6848 42.5587C91.8995 40.5704 91.1527 39.6555 89.1735 39.5529C88.3829 39.5061 87.5898 39.5248 86.8023 39.6089C86.1021 39.7022 85.6447 39.6836 85.4673 38.8154C85.3763 38.3378 85.1086 37.9121 84.7175 37.6231C84.3264 37.3342 83.8408 37.2033 83.3575 37.2565C82.0286 37.191 80.6985 37.3584 79.4273 37.7512C71.5015 40.4583 67.4685 46.4047 66.1802 54.3113C65.8442 56.3556 65.2467 57.6905 63.4543 58.568C63.3796 58.568 63.3236 58.6707 63.2489 58.708C60.1775 60.5097 57.0034 61.8539 53.3253 60.9951C52.5544 60.8556 51.8252 60.5428 51.1929 60.0803C50.5606 59.6178 50.0416 59.0177 49.6751 58.3253C52.5473 57.6763 55.311 56.6168 57.881 55.1795C59.3691 54.3786 60.6502 53.242 61.6224 51.8598C62.5947 50.4777 63.2315 48.888 63.4823 47.2168C64.2758 41.8586 61.3911 37.8819 56.294 37.4059C53.7506 37.1351 51.1872 37.6811 48.9749 38.9648C43.0749 42.4467 40.7037 47.8796 40.8811 54.47C40.9597 55.2974 40.816 56.1307 40.4648 56.884C40.1136 57.6372 39.5676 58.283 38.8833 58.7547C38.237 59.2752 37.5395 59.7288 36.8015 60.1083C35.6246 60.6136 34.3197 60.7408 33.0673 60.4723C32.4512 60.3603 32.2831 60.1269 32.6845 59.5388C33.4399 58.4512 34.0665 57.2797 34.5516 56.0476C36.3254 51.6975 37.0815 47.2541 35.4385 42.6987C33.422 37.0978 27.3073 35.4455 22.6676 39.1701C21.734 39.9169 20.9032 40.7851 19.9416 41.6719C19.7521 41.0689 19.6885 40.4335 19.7549 39.8049C19.6895 37.5179 18.9707 36.8458 16.6835 36.9485C16.3568 36.9485 16.0207 36.9484 15.694 37.0418C12.9773 37.4712 11.7171 38.9741 11.7544 41.7092C11.8011 45.1164 11.7544 48.5237 11.9131 51.9216C11.9457 53.3683 11.5459 54.792 10.7648 56.0102C6.40517 63.4781 2.72698 71.2914 0.89723 79.8328C0.0757083 83.6695 -0.428401 87.5435 0.495812 91.4361C1.42936 95.5061 4.59409 97.5038 8.48698 96.5983C10.2361 96.1565 11.7753 95.1161 12.8373 93.6578C14.5511 91.2472 15.7811 88.5273 16.4595 85.6485C17.9841 80.2067 18.923 74.6176 19.2601 68.9764C19.3255 68.0429 19.5869 67.6322 20.6044 67.5762C22.5905 67.3938 24.5075 66.7549 26.2057 65.7092C26.7192 65.4105 27.0552 65.2891 27.578 65.7932C28.2669 66.4271 29.0744 66.9184 29.954 67.2389C30.8336 67.5593 31.768 67.7025 32.7032 67.6602C36.6615 67.6602 39.7888 65.8492 42.5615 63.2448C43.0656 62.7687 43.3363 62.5913 43.8778 63.2448C45.6741 65.3556 48.1561 66.7667 50.8887 67.2308C53.5374 67.8019 56.2767 67.8078 58.9278 67.248C61.5789 66.6882 64.082 65.5754 66.2736 63.9822C66.9551 63.5155 67.3098 63.3848 67.9166 64.2063C68.6065 65.159 69.4887 65.9562 70.5061 66.5464C71.5236 67.1366 72.6537 67.5066 73.8232 67.6324C74.9927 67.7583 76.1756 67.6371 77.2954 67.2769C78.4151 66.9166 79.4468 66.3253 80.3235 65.5411C81.3518 64.5843 82.2893 63.5343 83.1241 62.4046L83.6656 63.4875C85.7754 67.5388 89.4629 68.715 93.5052 66.596C94.2348 66.1988 94.9311 65.743 95.587 65.2331C96.2872 64.729 96.9313 64.1596 97.6688 63.5715C97.8275 64.0569 97.9395 64.449 98.0702 64.8317C98.7144 66.6987 99.8813 67.6322 101.599 67.6322C103.662 67.6322 104.717 66.9507 105.445 64.9624C105.744 64.1433 105.996 63.308 106.201 62.4606C106.976 59.1861 108.129 56.0127 109.637 53.0044C110.489 51.0149 111.709 49.2035 113.231 47.6649C113.576 47.3568 113.95 47.0301 114.454 47.2261C114.958 47.4222 114.986 48.0009 114.958 48.505C114.893 49.8306 114.725 51.1654 114.762 52.4817C114.855 55.8142 117.469 57.6999 120.671 56.7477C123.547 55.8889 125.18 53.6952 126.179 51.0441C127.094 48.6077 125.843 46.6287 123.211 46.218ZM12.744 72.561C12.4936 77.0386 11.9479 81.4948 11.1102 85.9005C10.8789 87.1249 10.4898 88.3141 9.95264 89.4384C9.70992 89.9238 9.40186 90.4186 8.76705 90.3719C8.13223 90.3252 7.8335 89.7745 7.60011 89.2331C7.12582 87.7639 6.99173 86.2062 7.20801 84.6776C7.87083 77.6952 10.1487 71.1701 12.884 64.7757C12.884 64.7757 12.9493 64.7757 13.1174 64.7197C12.996 67.3801 12.9213 69.9752 12.744 72.561ZM24.2919 59.8749C23.4063 60.6556 22.331 61.1899 21.1739 61.4245C21.1739 57.2704 21.1739 53.2565 21.1739 49.2331C21.1606 48.9035 21.2486 48.5778 21.426 48.2996C22.3326 46.859 23.475 45.581 24.8054 44.519C26.9619 42.9508 29.3144 43.8749 29.4731 46.5167C29.7597 48.9967 29.4377 51.5091 28.535 53.8366C27.6322 56.1642 26.1758 58.2367 24.2919 59.8749ZM51.981 45.8726C52.4807 45.0524 53.2159 44.4018 54.0908 44.0056C54.5689 43.7452 55.1098 43.6222 55.6536 43.6502C56.1973 43.6782 56.7227 43.8561 57.1715 44.1643C57.5896 44.5158 57.8992 44.9787 58.0645 45.4993C58.2297 46.0198 58.2438 46.5765 58.1051 47.1048C57.967 47.8634 57.6755 48.5858 57.2485 49.2278C56.8216 49.8699 56.268 50.418 55.6218 50.8387C53.9309 52.0033 52.0278 52.8247 50.0205 53.2564C49.8849 50.6536 50.5707 48.0739 51.981 45.8819V45.8726ZM85.1779 44.0056C84.3098 48.141 83.4976 52.295 82.5733 56.421C82.2477 57.8953 81.4828 59.2362 80.3795 60.2669C79.9953 60.6819 79.4965 60.9735 78.9464 61.1048C78.3963 61.2361 77.8197 61.2011 77.2895 61.0044C76.7863 60.8463 76.3447 60.5361 76.0253 60.1164C75.7059 59.6968 75.5246 59.1884 75.5064 58.6613C75.077 53.0604 76.636 48.1596 81.257 44.575C82.2518 43.8627 83.4182 43.4278 84.6365 43.3148C85.2246 43.1468 85.2806 43.4549 85.2246 43.9776L85.1779 44.0056Z" fill="white"/>
<path d="M159.264 22.8807C157.331 22.8105 155.431 22.3491 153.681 21.5244C151.93 20.6997 150.365 19.5289 149.079 18.0825C147.798 16.7188 146.256 15.6257 144.545 14.8679C142.834 14.1101 140.988 13.703 139.117 13.6706C137.246 13.6381 135.387 13.9811 133.651 14.6791C131.914 15.3772 130.336 16.4162 129.008 17.7347C127.68 19.0532 126.629 20.6245 125.919 22.3558C125.209 24.0871 124.853 25.9432 124.872 27.8144C124.891 29.6856 125.285 31.534 126.031 33.2503C126.777 34.9666 127.859 36.5161 129.214 37.8071C130.663 39.0588 131.844 40.5905 132.686 42.3101C133.528 44.0298 134.014 45.9019 134.115 47.8141C134.484 53.8161 137.156 59.4438 141.574 63.5238C145.992 67.6039 151.814 69.8213 157.827 69.7137C160.01 69.7451 162.184 69.4301 164.268 68.7802C169.591 67.2007 174.178 63.7788 177.209 59.1268C180.24 54.4749 181.517 48.8964 180.811 43.3894C179.513 32.3556 170.178 23.4781 159.264 22.8807ZM166.182 58.8199C163.634 60.5862 160.6 61.516 157.5 61.4804C153.609 61.4852 149.866 59.9932 147.045 57.3135C144.224 54.6337 142.543 50.9717 142.349 47.086C141.969 41.1702 139.288 35.6382 134.88 31.6741C134.292 31.1653 133.814 30.542 133.475 29.8423C133.136 29.1426 132.943 28.3811 132.908 27.6043C132.873 26.8275 132.996 26.0517 133.271 25.3243C133.546 24.5969 133.966 23.9332 134.506 23.3736C135.046 22.814 135.694 22.3703 136.412 22.0696C137.129 21.7689 137.9 21.6176 138.677 21.6247C139.455 21.6319 140.223 21.7974 140.934 22.1113C141.646 22.4251 142.286 22.8806 142.815 23.4501C144.826 25.7067 147.263 27.5426 149.987 28.8517C152.711 30.1607 155.668 30.917 158.686 31.0767C161.829 31.3061 164.823 32.5057 167.255 34.5097C169.687 36.5138 171.437 39.2234 172.263 42.2645C173.088 45.3055 172.95 48.528 171.866 51.4868C170.781 54.4456 168.805 56.9949 166.21 58.7826L166.182 58.8199Z" fill="#0FBC99"/>
<path d="M109.851 15.6187C112.48 17.7996 115.83 18.9184 119.242 18.7552C122.07 18.6298 124.764 17.5204 126.86 15.6187C127.458 15.1146 127.43 14.8252 126.86 14.2745C122.556 10.0644 114.052 10.1018 109.776 14.3491C109.225 14.8999 109.328 15.1893 109.851 15.6187Z" fill="#0FBC99"/>
<path d="M130.036 12.5472C131.44 10.862 132.22 8.74444 132.246 6.55109C132.271 4.35774 131.54 2.2226 130.176 0.505218C129.69 -0.0642095 129.326 -0.157558 128.822 0.505218C127.418 2.19329 126.654 4.32218 126.664 6.51773C126.674 8.71328 127.458 10.835 128.878 12.5099C129.27 12.9299 129.541 13.0513 130.036 12.5472Z" fill="#0FBC99"/>
</svg>
