<svg width="91" height="49" viewBox="0 0 91 49" fill="none" xmlns="http://www.w3.org/2000/svg">
<path d="M62.2258 23.7176C61.924 23.6666 61.8637 23.5877 61.924 23.2906C62.0598 22.6871 62.1498 22.0742 62.1933 21.4571C62.2536 19.8419 61.2092 19.0156 59.6263 19.3777C58.0434 19.7397 56.9479 20.6959 55.9499 21.8656C54.9883 23.0287 54.1945 24.3208 53.5918 25.7042C53.5221 25.8528 53.5082 26.1684 53.2668 26.0709C53.0254 25.9735 53.1554 25.7135 53.1879 25.5325C53.2715 25.0683 53.3782 24.6459 53.4804 24.2096C53.7728 22.9425 54.0838 21.6799 54.353 20.4081C54.4969 19.749 54.3113 19.4195 53.7449 19.3452C52.3895 19.1642 50.8855 19.4844 50.3888 21.2343C49.7657 23.3748 49.3934 25.5805 49.2794 27.8069C49.2794 28.0715 49.3258 28.3546 49.1216 28.5774C48.5149 29.3365 47.8092 30.0109 47.0234 30.5826C46.8587 30.7255 46.6554 30.8167 46.4391 30.8448C46.2228 30.8729 46.003 30.8366 45.8072 30.7404C45.6322 30.6244 45.4963 30.4581 45.4176 30.2634C45.3389 30.0687 45.321 29.8547 45.3662 29.6496C45.4498 28.7677 45.538 27.8812 45.6726 27.0039C45.9279 25.2911 46.3596 23.6062 46.5499 21.8981C46.6567 20.9094 46.2853 20.4546 45.3013 20.4035C44.9081 20.3802 44.5138 20.3895 44.1222 20.4313C43.7741 20.4778 43.5466 20.4685 43.4584 20.0368C43.4131 19.7993 43.28 19.5876 43.0856 19.4439C42.8911 19.3003 42.6496 19.2352 42.4093 19.2616C41.7485 19.2291 41.0872 19.3123 40.4551 19.5076C36.5141 20.8537 34.5087 23.8105 33.8682 27.7419C33.701 28.7584 33.404 29.4222 32.5127 29.8585C32.4756 29.8585 32.4477 29.9096 32.4106 29.9281C30.8834 30.824 29.3051 31.4924 27.4762 31.0653C27.0929 30.996 26.7303 30.8404 26.4159 30.6105C26.1015 30.3805 25.8434 30.0821 25.6612 29.7378C27.0894 29.4151 28.4636 28.8883 29.7415 28.1736C30.4814 27.7754 31.1184 27.2102 31.6019 26.523C32.0853 25.8357 32.4019 25.0452 32.5266 24.2143C32.9212 21.55 31.4868 19.5726 28.9523 19.3359C27.6877 19.2013 26.4131 19.4728 25.3131 20.1111C22.3794 21.8424 21.2003 24.5438 21.2885 27.8208C21.3276 28.2322 21.2562 28.6466 21.0815 29.0212C20.9069 29.3957 20.6354 29.7168 20.2951 29.9513C19.9738 30.2102 19.6269 30.4357 19.26 30.6244C18.6748 30.8757 18.0259 30.9389 17.4032 30.8054C17.0968 30.7497 17.0133 30.6337 17.2129 30.3412C17.5885 29.8004 17.9 29.2179 18.1413 28.6053C19.0232 26.4423 19.3992 24.2328 18.5822 21.9677C17.5796 19.1827 14.5391 18.3612 12.2321 20.2132C11.7679 20.5845 11.3548 21.0162 10.8766 21.4571C10.7824 21.1573 10.7508 20.8414 10.7838 20.5288C10.7513 19.3916 10.3939 19.0574 9.25659 19.1085C9.09413 19.1085 8.92702 19.1317 8.76455 19.1549C7.41375 19.3684 6.78708 20.1157 6.80565 21.4757C6.82886 23.1699 6.80565 24.8641 6.88456 26.5537C6.90079 27.2731 6.70199 27.9809 6.31361 28.5867C4.14582 32.3 2.31689 36.1851 1.40707 40.4322C0.998582 42.3399 0.747921 44.2662 1.20747 46.2017C1.67167 48.2255 3.24528 49.2188 5.18097 48.7685C6.05072 48.5489 6.81606 48.0315 7.34412 47.3064C8.19541 46.109 8.80699 44.7583 9.14519 43.3286C9.90282 40.621 10.3697 37.8404 10.5378 35.0339C10.5703 34.5698 10.7002 34.3655 11.2062 34.3377C12.1937 34.247 13.1469 33.9293 13.9914 33.4093C14.2467 33.2608 14.4138 33.2005 14.6737 33.4511C15.0163 33.7663 15.4178 34.0107 15.8552 34.17C16.2925 34.3293 16.7571 34.4005 17.2222 34.3795C19.1903 34.3795 20.7454 33.479 22.1241 32.184C22.3747 31.9473 22.5093 31.8591 22.7786 32.184C23.6717 33.2335 24.9059 33.9352 26.2647 34.1659C27.5817 34.4499 28.9438 34.4529 30.262 34.1745C31.5802 33.8962 32.8248 33.3428 33.9146 32.5507C34.2534 32.3186 34.4298 32.2536 34.7316 32.6621C35.0746 33.1358 35.5132 33.5322 36.0192 33.8257C36.5251 34.1191 37.087 34.3031 37.6685 34.3657C38.2501 34.4282 38.8382 34.368 39.395 34.1889C39.9518 34.0098 40.4648 33.7157 40.9007 33.3258C41.4131 32.8511 41.8794 32.3289 42.2933 31.7662L42.5625 32.3047C43.6116 34.3191 45.4452 34.904 47.4551 33.8503C47.8179 33.6528 48.1641 33.4262 48.4903 33.1726C48.8384 32.922 49.1587 32.6388 49.5254 32.3464C49.6043 32.5878 49.66 32.7828 49.725 32.9731C50.0453 33.9014 50.6256 34.3656 51.4797 34.3656C52.5055 34.3656 53.0301 34.0267 53.3922 33.038C53.5406 32.6307 53.6662 32.2154 53.7682 31.7941C54.1541 30.1661 54.7274 28.5882 55.4764 27.0921C55.9033 26.1127 56.5094 25.2217 57.2635 24.4649C57.4353 24.3118 57.621 24.1493 57.8716 24.2468C58.1223 24.3442 58.1362 24.632 58.1223 24.8827C58.0898 25.5418 58.0062 26.2055 58.0248 26.86C58.0053 27.2202 58.0765 27.5795 58.232 27.905C58.3875 28.2305 58.6223 28.5117 58.9147 28.7229C59.2072 28.934 59.5481 29.0683 59.906 29.1135C60.2639 29.1586 60.6274 29.1131 60.9632 28.9812C62.3929 28.5542 63.2052 27.4634 63.7019 26.1452C64.1568 24.9059 63.5348 23.9219 62.2258 23.7176ZM7.2977 36.8163C7.17323 39.0428 6.90186 41.2585 6.48536 43.4492C6.37034 44.058 6.17686 44.6494 5.90975 45.2084C5.78906 45.4498 5.63588 45.6958 5.32023 45.6726C5.00458 45.6494 4.85604 45.3755 4.73999 45.1063C4.50415 44.3758 4.43748 43.6012 4.54502 42.8412C4.8746 39.3692 6.00723 36.1247 7.36732 32.9452C7.36732 32.9452 7.39982 32.9452 7.48337 32.9173C7.42303 34.2402 7.38589 35.5306 7.2977 36.8163ZM13.0398 30.5083C12.5994 30.8965 12.0647 31.1622 11.4894 31.2789C11.4894 29.2133 11.4894 27.2174 11.4894 25.2169C11.4828 25.053 11.5265 24.891 11.6147 24.7527C12.0655 24.0364 12.6336 23.4009 13.2951 22.8728C14.3674 22.093 15.5371 22.5526 15.6161 23.8662C15.7586 25.0993 15.5985 26.3486 15.1496 27.5059C14.7007 28.6632 13.9765 29.6938 13.0398 30.5083V30.5083ZM26.8078 23.5459C27.0562 23.1381 27.4218 22.8146 27.8568 22.6176C28.0946 22.4881 28.3635 22.4269 28.6339 22.4408C28.9043 22.4548 29.1655 22.5432 29.3887 22.6965C29.5966 22.8712 29.7505 23.1014 29.8327 23.3602C29.9149 23.6191 29.9219 23.8959 29.8529 24.1586C29.7842 24.5358 29.6393 24.895 29.427 25.2142C29.2147 25.5335 28.9394 25.806 28.6181 26.0152C27.7773 26.5943 26.8311 27.0027 25.833 27.2174C25.7655 25.9232 26.1065 24.6405 26.8078 23.5505V23.5459ZM43.3145 22.6176C42.8828 24.6738 42.479 26.7393 42.0194 28.7909C41.8575 29.524 41.4771 30.1908 40.9285 30.7033C40.7375 30.9096 40.4895 31.0546 40.216 31.1199C39.9425 31.1852 39.6557 31.1678 39.3921 31.07C39.1419 30.9914 38.9223 30.8371 38.7635 30.6284C38.6047 30.4198 38.5145 30.167 38.5055 29.9049C38.2919 27.1199 39.0671 24.6831 41.3649 22.9007C41.8595 22.5465 42.4395 22.3303 43.0453 22.2741C43.3377 22.1905 43.3656 22.3437 43.3377 22.6036L43.3145 22.6176Z" fill="#023D37"/>
<path d="M80.1524 12.1131C79.1925 12.0811 78.2491 11.8554 77.3787 11.4494C76.5084 11.0433 75.7292 10.4655 75.088 9.75051C74.4508 9.0724 73.6842 8.52889 72.8333 8.15209C71.9825 7.77528 71.0648 7.57283 70.1344 7.55671C69.2039 7.54059 68.2797 7.71112 67.4164 8.05821C66.553 8.40531 65.7679 8.92192 65.1076 9.57754C64.4473 10.2332 63.9251 11.0145 63.5719 11.8753C63.2187 12.7362 63.0416 13.6591 63.0511 14.5895C63.0607 15.52 63.2567 16.4391 63.6275 17.2925C63.9982 18.1459 64.5364 18.9164 65.21 19.5583C65.9306 20.1807 66.5179 20.9423 66.9367 21.7974C67.3555 22.6524 67.5971 23.5833 67.647 24.5341C67.8307 27.5185 69.1594 30.3168 71.3561 32.3456C73.5527 34.3743 76.4478 35.4769 79.4375 35.4234C80.523 35.439 81.6041 35.2824 82.6405 34.9592C85.2873 34.1738 87.5682 32.4724 89.0752 30.1592C90.5823 27.8461 91.217 25.0723 90.866 22.334C90.2208 16.8244 85.5788 12.4102 80.1524 12.1131ZM83.5921 29.9834C82.3252 30.8617 80.8165 31.324 79.2751 31.3063C77.3432 31.3101 75.4837 30.5711 74.0814 29.2424C72.6791 27.9136 71.8412 26.0966 71.7412 24.1674C71.5523 21.2259 70.2193 18.4752 68.0276 16.5041C67.7352 16.2511 67.4975 15.9412 67.3288 15.5933C67.1602 15.2453 67.0643 14.8667 67.0469 14.4804C67.0295 14.0942 67.091 13.7084 67.2276 13.3468C67.3643 12.9851 67.5732 12.655 67.8417 12.3768C68.1102 12.0985 68.4325 11.8779 68.7891 11.7284C69.1457 11.5789 69.529 11.5036 69.9157 11.5072C70.3023 11.5107 70.6842 11.593 71.038 11.7491C71.3917 11.9052 71.71 12.1317 71.9733 12.4148C72.9728 13.5369 74.1849 14.4498 75.5394 15.1007C76.8938 15.7516 78.3639 16.1276 79.8646 16.207C81.4274 16.3211 82.9163 16.9176 84.1255 17.9141C85.3348 18.9106 86.2049 20.2579 86.6155 21.77C87.0262 23.2821 86.9572 24.8845 86.4181 26.3557C85.879 27.8269 84.8964 29.0945 83.606 29.9834H83.5921Z" fill="#5EBA98"/>
<path d="M55.5834 8.50228C56.8908 9.58671 58.5565 10.143 60.2532 10.0619C61.659 9.99954 62.9989 9.44787 64.041 8.50228C64.3381 8.25163 64.3242 8.10774 64.041 7.83389C61.9011 5.74051 57.6723 5.75908 55.5463 7.87103C55.2724 8.14488 55.3234 8.28877 55.5834 8.50228Z" fill="#5EBA98"/>
<path d="M65.6198 6.96585C66.318 6.12791 66.7061 5.07498 66.7188 3.98437C66.7315 2.89375 66.368 1.83208 65.6894 0.978137C65.448 0.694997 65.267 0.64858 65.0163 0.978137C64.3182 1.81751 63.9383 2.87607 63.9434 3.96778C63.9485 5.05948 64.3383 6.11446 65.0442 6.94728C65.2391 7.16543 65.3738 7.22578 65.6198 6.96585Z" fill="#5EBA98"/>
</svg>
