<svg width="485" height="266" viewBox="0 0 485 266" fill="none" xmlns="http://www.w3.org/2000/svg">
<path d="M310.053 183.898V157.366L390.379 49.291H431.759L353.137 157.366L333.907 151.768H468.028V183.898H310.053ZM401.819 219.68V183.898L403.036 151.768V119.881H440.279V219.68H401.819Z" fill="#0FBC99"/>
<path d="M22.2168 183.898V157.366L102.543 49.291H143.923L65.3006 157.366L46.0712 151.768H180.191V183.898H22.2168ZM113.983 219.68V183.898L115.2 151.768V119.881H152.442V219.68H113.983Z" fill="#0FBC99"/>
<path d="M265.264 92.0681C258.843 91.2581 252.653 89.1581 247.065 85.8939C241.476 82.6297 236.606 78.269 232.748 73.074C228.893 68.1284 224.086 64.0062 218.61 60.9502C213.135 57.894 207.102 55.9664 200.87 55.2811C194.636 54.5958 188.33 55.1666 182.321 56.9601C176.312 58.7535 170.724 61.7334 165.887 65.7229C161.05 69.7124 157.061 74.6312 154.157 80.1883C151.253 85.7454 149.493 91.8283 148.98 98.0773C148.467 104.326 149.211 110.615 151.17 116.571C153.129 122.528 156.261 128.031 160.383 132.756C164.832 137.379 168.3 142.854 170.581 148.851C172.86 154.849 173.904 161.245 173.649 167.656C173.031 187.794 180.211 207.395 193.691 222.371C207.173 237.346 225.914 246.54 246.009 248.035C253.283 248.813 260.634 248.433 267.788 246.907C286.035 243.279 302.395 233.277 313.942 218.691C325.489 204.105 331.469 185.886 330.812 167.295C329.9 129.925 301.49 97.4274 265.264 92.0681ZM277.259 214.11C268.214 219.217 257.804 221.384 247.472 220.309C234.507 219.136 222.488 213.024 213.903 203.238C205.318 193.453 200.823 180.742 201.349 167.735C201.905 147.88 194.668 128.596 181.184 114.011C179.379 112.132 177.976 109.905 177.06 107.466C176.144 105.026 175.736 102.426 175.858 99.8238C175.981 97.2211 176.633 94.6708 177.774 92.3291C178.916 89.9869 180.522 87.9021 182.496 86.2012C184.47 84.501 186.77 83.2206 189.256 82.4387C191.741 81.6567 194.36 81.3889 196.952 81.6531C199.544 81.9165 202.055 82.7058 204.332 83.9722C206.609 85.2385 208.604 86.9558 210.195 89.0193C216.207 97.1682 223.773 104.045 232.457 109.253C241.142 114.461 250.773 117.895 260.794 119.36C271.209 121.094 280.829 126.02 288.325 133.457C295.821 140.893 300.824 150.473 302.641 160.874C304.459 171.275 303.002 181.984 298.472 191.521C293.942 201.059 286.563 208.955 277.353 214.119L277.259 214.11Z" fill="#023D37"/>
<path d="M102.642 52.5968C110.741 60.6841 121.573 65.45 133.008 65.9581C142.48 66.4115 151.813 63.541 159.392 57.8427C161.541 56.3452 161.537 55.3711 159.806 53.3579C146.746 37.9841 118.36 35.4858 102.784 48.3381C100.777 50.0058 101.03 51.0029 102.642 52.5968Z" fill="#023D37"/>
<path d="M170.936 48.5136C176.141 43.3242 179.398 36.4998 180.16 29.1897C180.921 21.8797 179.141 14.5303 175.117 8.37952C173.673 6.32999 172.487 5.90623 170.601 7.96207C165.396 13.1612 162.19 20.0284 161.548 27.3568C160.904 34.6853 162.865 42.006 167.085 48.0321C168.258 49.6168 169.124 50.1051 170.936 48.5136Z" fill="#023D37"/>
</svg>
