<svg width="41" height="41" viewBox="0 0 41 41" fill="none" xmlns="http://www.w3.org/2000/svg">
<g clip-path="url(#clip0_1468_7436)">
<path d="M20.5 0.23291C16.5444 0.23291 12.6776 1.40589 9.3886 3.60352C6.09962 5.80115 3.53617 8.92472 2.02242 12.5792C0.508666 16.2338 0.112599 20.2551 0.884303 24.1347C1.65601 28.0143 3.56082 31.578 6.35787 34.375C9.15492 37.1721 12.7186 39.0769 16.5982 39.8486C20.4778 40.6203 24.4992 40.2243 28.1537 38.7105C31.8082 37.1967 34.9318 34.6333 37.1294 31.3443C39.327 28.0553 40.5 24.1885 40.5 20.2329C40.4943 14.9303 38.3853 9.84659 34.6358 6.09711C30.8863 2.34762 25.8026 0.238645 20.5 0.23291V0.23291ZM37.1667 20.2329C37.1687 23.4991 36.2049 26.693 34.3967 29.4129L32.41 27.4246C32.2542 27.2684 32.1667 27.0568 32.1667 26.8362V25.2329C32.1667 23.9068 31.6399 22.6351 30.7022 21.6974C29.7645 20.7597 28.4928 20.2329 27.1667 20.2329H22.1667C21.7246 20.2329 21.3007 20.0573 20.9882 19.7448C20.6756 19.4322 20.5 19.0083 20.5 18.5662V17.7329C20.5 17.5119 20.5878 17.2999 20.7441 17.1437C20.9004 16.9874 21.1123 16.8996 21.3333 16.8996C22.4384 16.8996 23.4982 16.4606 24.2796 15.6792C25.061 14.8978 25.5 13.838 25.5 12.7329V11.0662C25.5 10.8452 25.5878 10.6333 25.7441 10.477C25.9004 10.3207 26.1123 10.2329 26.3333 10.2329H28.6317C29.7357 10.2298 30.7939 9.79139 31.5767 9.01291L32.205 8.38458C33.777 9.93137 35.0253 11.7756 35.8772 13.8099C36.729 15.8441 37.1674 18.0275 37.1667 20.2329ZM3.91501 21.8379L9.17834 27.1012C9.64151 27.5674 10.1926 27.9369 10.7998 28.1884C11.4069 28.4399 12.0579 28.5683 12.715 28.5662H17.1667C17.6087 28.5662 18.0326 28.7418 18.3452 29.0544C18.6577 29.367 18.8333 29.7909 18.8333 30.2329V36.8146C15.0003 36.4233 11.4207 34.7182 8.70156 31.9885C5.98245 29.2587 4.29131 25.6724 3.91501 21.8379ZM22.1667 36.8146V30.2329C22.1667 28.9068 21.6399 27.6351 20.7022 26.6974C19.7645 25.7597 18.4928 25.2329 17.1667 25.2329H12.715C12.4959 25.2331 12.2789 25.19 12.0764 25.1062C11.8739 25.0225 11.6899 24.8996 11.535 24.7446L4.10501 17.3146C4.58197 14.6032 5.72457 12.0527 7.4303 9.89188C9.13603 7.73102 11.3515 6.02742 13.878 4.93393C16.4045 3.84044 19.1629 3.39127 21.9058 3.62671C24.6487 3.86216 27.2902 4.77485 29.5933 6.28291L29.22 6.65624C29.0631 6.81096 28.852 6.89827 28.6317 6.89958H26.3333C25.2283 6.89958 24.1685 7.33856 23.3871 8.11997C22.6057 8.90137 22.1667 9.96117 22.1667 11.0662V12.7329C22.1667 12.9539 22.0789 13.1659 21.9226 13.3222C21.7663 13.4784 21.5544 13.5662 21.3333 13.5662C20.2283 13.5662 19.1685 14.0052 18.3871 14.7866C17.6057 15.568 17.1667 16.6278 17.1667 17.7329V18.5662C17.1667 19.8923 17.6935 21.1641 18.6311 22.1018C19.5688 23.0395 20.8406 23.5662 22.1667 23.5662H27.1667C27.6087 23.5662 28.0326 23.7418 28.3452 24.0544C28.6577 24.367 28.8333 24.7909 28.8333 25.2329V26.8362C28.8365 27.9402 29.2749 28.9984 30.0533 29.7812L32.2817 32.0096C29.5674 34.7332 25.9927 36.4314 22.1667 36.8146Z" fill="#374957"/>
</g>
<defs>
<clipPath id="clip0_1468_7436">
<rect width="40" height="40" fill="white" transform="translate(0.5 0.23291)"/>
</clipPath>
</defs>
</svg>
